<svg width="78" height="53" viewBox="0 0 78 53" fill="none" xmlns="http://www.w3.org/2000/svg">
<path d="M21.408 52.72C14.784 52.672 9.768 50.92 6.36 47.464C2.952 43.96 1.104 39.376 0.816 33.712C0.72 31.12 0.672 28.816 0.672 26.8C0.672 24.736 0.72 22.36 0.816 19.672C1.008 16.072 1.872 12.88 3.408 10.096C4.992 7.264 7.296 5.032 10.32 3.4C13.344 1.72 17.04 0.879997 21.408 0.879997C27.888 0.927997 32.88 2.68 36.384 6.136C39.888 9.592 41.784 14.104 42.072 19.672C42.168 22.36 42.216 24.736 42.216 26.8C42.216 28.816 42.168 31.12 42.072 33.712C41.736 39.376 39.864 43.96 36.456 47.464C33.048 50.92 28.032 52.672 21.408 52.72ZM21.408 42.28C23.76 42.28 25.512 41.512 26.664 39.976C27.864 38.392 28.512 36.184 28.608 33.352C28.704 31.96 28.752 29.728 28.752 26.656C28.752 23.584 28.704 21.4 28.608 20.104C28.512 17.368 27.888 15.208 26.736 13.624C25.584 12.04 23.808 11.224 21.408 11.176C19.056 11.224 17.28 12.04 16.08 13.624C14.928 15.208 14.304 17.368 14.208 20.104C14.16 21.4 14.136 23.584 14.136 26.656C14.136 29.728 14.16 31.96 14.208 33.352C14.448 39.304 16.848 42.28 21.408 42.28ZM65.8815 52C65.4015 52 64.9695 51.832 64.5855 51.496C64.2495 51.112 64.0815 50.68 64.0815 50.2V15.928L54.2175 23.488C53.8815 23.776 53.5215 23.92 53.1375 23.92C52.6095 23.92 52.1295 23.632 51.6975 23.056L47.4495 17.512C47.2095 17.128 47.0895 16.768 47.0895 16.432C47.0895 15.76 47.3775 15.256 47.9535 14.92L64.5135 2.104C65.0415 1.768 65.6175 1.6 66.2415 1.6H75.2415C75.7695 1.6 76.2015 1.768 76.5375 2.104C76.8735 2.44 77.0415 2.872 77.0415 3.4V50.2C77.0415 50.68 76.8735 51.112 76.5375 51.496C76.2015 51.832 75.7695 52 75.2415 52H65.8815Z" fill="#DDDDDD"/>
</svg>
