<svg width="90" height="53" viewBox="0 0 90 53" fill="none" xmlns="http://www.w3.org/2000/svg">
<path d="M21.408 52.72C14.784 52.672 9.768 50.92 6.36 47.464C2.952 43.96 1.104 39.376 0.816 33.712C0.72 31.12 0.672 28.816 0.672 26.8C0.672 24.736 0.72 22.36 0.816 19.672C1.008 16.072 1.872 12.88 3.408 10.096C4.992 7.264 7.296 5.032 10.32 3.4C13.344 1.72 17.04 0.879997 21.408 0.879997C27.888 0.927997 32.88 2.68 36.384 6.136C39.888 9.592 41.784 14.104 42.072 19.672C42.168 22.36 42.216 24.736 42.216 26.8C42.216 28.816 42.168 31.12 42.072 33.712C41.736 39.376 39.864 43.96 36.456 47.464C33.048 50.92 28.032 52.672 21.408 52.72ZM21.408 42.28C23.76 42.28 25.512 41.512 26.664 39.976C27.864 38.392 28.512 36.184 28.608 33.352C28.704 31.96 28.752 29.728 28.752 26.656C28.752 23.584 28.704 21.4 28.608 20.104C28.512 17.368 27.888 15.208 26.736 13.624C25.584 12.04 23.808 11.224 21.408 11.176C19.056 11.224 17.28 12.04 16.08 13.624C14.928 15.208 14.304 17.368 14.208 20.104C14.16 21.4 14.136 23.584 14.136 26.656C14.136 29.728 14.16 31.96 14.208 33.352C14.448 39.304 16.848 42.28 21.408 42.28ZM50.7615 52C50.2335 52 49.7775 51.832 49.3935 51.496C49.0575 51.16 48.8895 50.728 48.8895 50.2V45.088C48.8895 43.648 49.4895 42.472 50.6895 41.56L58.1775 34.216C62.5455 30.856 65.8575 28.24 68.1135 26.368C70.3695 24.496 72.0735 22.792 73.2255 21.256C74.3775 19.72 74.9535 18.256 74.9535 16.864C74.9535 13.072 73.0815 11.176 69.3375 11.176C67.3695 11.176 65.8575 11.776 64.8015 12.976C63.7455 14.128 63.0495 15.592 62.7135 17.368C62.4255 18.472 61.6095 19.024 60.2655 19.024H51.2655C50.8335 19.024 50.4735 18.88 50.1855 18.592C49.8975 18.304 49.7535 17.944 49.7535 17.512C49.8495 14.44 50.6895 11.632 52.2735 9.088C53.9055 6.496 56.1855 4.456 59.1135 2.968C62.0895 1.432 65.4975 0.663996 69.3375 0.663996C73.3695 0.663996 76.8255 1.312 79.7055 2.608C82.5855 3.904 84.7695 5.728 86.2575 8.08C87.7455 10.432 88.4895 13.168 88.4895 16.288C88.4895 19.648 87.4335 22.72 85.3215 25.504C83.2575 28.24 80.0895 31.216 75.8175 34.432L69.1935 41.128H87.6975C88.2255 41.128 88.6575 41.296 88.9935 41.632C89.3775 41.968 89.5695 42.4 89.5695 42.928V50.2C89.5695 50.728 89.3775 51.16 88.9935 51.496C88.6575 51.832 88.2255 52 87.6975 52H50.7615Z" fill="#DDDDDD"/>
</svg>
