<svg width="91" height="53" viewBox="0 0 91 53" fill="none" xmlns="http://www.w3.org/2000/svg">
<path d="M21.408 52.72C14.784 52.672 9.768 50.92 6.36 47.464C2.952 43.96 1.104 39.376 0.816 33.712C0.72 31.12 0.672 28.816 0.672 26.8C0.672 24.736 0.72 22.36 0.816 19.672C1.008 16.072 1.872 12.88 3.408 10.096C4.992 7.264 7.296 5.032 10.32 3.4C13.344 1.72 17.04 0.879997 21.408 0.879997C27.888 0.927997 32.88 2.68 36.384 6.136C39.888 9.592 41.784 14.104 42.072 19.672C42.168 22.36 42.216 24.736 42.216 26.8C42.216 28.816 42.168 31.12 42.072 33.712C41.736 39.376 39.864 43.96 36.456 47.464C33.048 50.92 28.032 52.672 21.408 52.72ZM21.408 42.28C23.76 42.28 25.512 41.512 26.664 39.976C27.864 38.392 28.512 36.184 28.608 33.352C28.704 31.96 28.752 29.728 28.752 26.656C28.752 23.584 28.704 21.4 28.608 20.104C28.512 17.368 27.888 15.208 26.736 13.624C25.584 12.04 23.808 11.224 21.408 11.176C19.056 11.224 17.28 12.04 16.08 13.624C14.928 15.208 14.304 17.368 14.208 20.104C14.16 21.4 14.136 23.584 14.136 26.656C14.136 29.728 14.16 31.96 14.208 33.352C14.448 39.304 16.848 42.28 21.408 42.28ZM69.3375 52.72C64.6815 52.72 60.7695 52 57.6015 50.56C54.4815 49.12 52.1535 47.344 50.6175 45.232C49.1295 43.072 48.3375 40.912 48.2415 38.752C48.2415 38.32 48.3855 37.96 48.6735 37.672C49.0095 37.384 49.3935 37.24 49.8255 37.24H59.2575C59.7855 37.24 60.2175 37.336 60.5535 37.528C60.8895 37.72 61.2015 38.08 61.4895 38.608C62.4495 41.104 65.0655 42.352 69.3375 42.352C71.7855 42.352 73.6815 41.8 75.0255 40.696C76.4175 39.544 77.1135 37.984 77.1135 36.016C77.1135 32.176 74.6175 30.256 69.6255 30.256H61.6335C61.1535 30.256 60.7215 30.088 60.3375 29.752C60.0015 29.368 59.8335 28.936 59.8335 28.456V24.424C59.8335 23.368 60.2175 22.552 60.9855 21.976L72.7935 11.968H52.7775C52.2975 11.968 51.8655 11.8 51.4815 11.464C51.1455 11.08 50.9775 10.648 50.9775 10.168V3.4C50.9775 2.872 51.1455 2.44 51.4815 2.104C51.8655 1.768 52.2975 1.6 52.7775 1.6H85.8975C86.4255 1.6 86.8575 1.768 87.1935 2.104C87.5775 2.44 87.7695 2.872 87.7695 3.4V9.52C87.7695 10.432 87.3855 11.224 86.6175 11.896L75.6735 22.048L76.1775 22.192C80.5935 22.768 84.0735 24.256 86.6175 26.656C89.2095 29.008 90.5055 32.392 90.5055 36.808C90.5055 40.024 89.5935 42.832 87.7695 45.232C85.9455 47.632 83.4255 49.48 80.2095 50.776C76.9935 52.072 73.3695 52.72 69.3375 52.72Z" fill="#DDDDDD"/>
</svg>
