<svg width="291" height="17" viewBox="0 0 291 17" fill="none" xmlns="http://www.w3.org/2000/svg">
<path d="M1.173 13C1.05967 13 0.963333 12.9603 0.884 12.881C0.804667 12.8017 0.765 12.7053 0.765 12.592V11.725C0.765 11.623 0.787667 11.504 0.833 11.368C0.889667 11.2207 1.00867 11.0733 1.19 10.926L3.876 8.257C4.624 7.66767 5.22467 7.169 5.678 6.761C6.14267 6.34167 6.477 5.962 6.681 5.622C6.89633 5.27067 7.004 4.925 7.004 4.585C7.004 4.075 6.86233 3.66133 6.579 3.344C6.307 3.02667 5.87067 2.868 5.27 2.868C4.87333 2.868 4.539 2.953 4.267 3.123C3.995 3.28167 3.77967 3.497 3.621 3.769C3.47367 4.041 3.37167 4.34133 3.315 4.67C3.29233 4.81733 3.23 4.91933 3.128 4.976C3.026 5.03267 2.924 5.061 2.822 5.061H1.309C1.207 5.061 1.122 5.027 1.054 4.959C0.986 4.891 0.952 4.81167 0.952 4.721C0.963333 4.23367 1.06533 3.76333 1.258 3.31C1.45067 2.84533 1.72833 2.43733 2.091 2.086C2.465 1.72333 2.91833 1.43433 3.451 1.219C3.98367 1.00367 4.58433 0.896 5.253 0.896C6.19367 0.896 6.97 1.05467 7.582 1.372C8.20533 1.68933 8.67 2.12 8.976 2.664C9.29333 3.208 9.452 3.82 9.452 4.5C9.452 5.03267 9.35 5.52567 9.146 5.979C8.942 6.421 8.64733 6.85167 8.262 7.271C7.87667 7.679 7.412 8.09833 6.868 8.529L4.454 10.977H9.299C9.42367 10.977 9.52 11.0167 9.588 11.096C9.66733 11.164 9.707 11.2603 9.707 11.385V12.592C9.707 12.7053 9.66733 12.8017 9.588 12.881C9.52 12.9603 9.42367 13 9.299 13H1.173ZM15.7274 13.187C14.7527 13.187 13.9311 13.0283 13.2624 12.711C12.5937 12.3823 12.0837 11.9573 11.7324 11.436C11.3924 10.9147 11.2111 10.3593 11.1884 9.77C11.1771 9.668 11.2054 9.58867 11.2734 9.532C11.3527 9.464 11.4434 9.43 11.5454 9.43H13.1264C13.2511 9.43 13.3531 9.45833 13.4324 9.515C13.5231 9.56033 13.5911 9.64533 13.6364 9.77C13.7497 10.11 13.9084 10.3877 14.1124 10.603C14.3277 10.8183 14.5714 10.977 14.8434 11.079C15.1267 11.181 15.4214 11.232 15.7274 11.232C16.1354 11.232 16.5037 11.1527 16.8324 10.994C17.1724 10.824 17.4444 10.5747 17.6484 10.246C17.8524 9.91733 17.9544 9.515 17.9544 9.039C17.9544 8.61967 17.8581 8.257 17.6654 7.951C17.4727 7.645 17.2064 7.407 16.8664 7.237C16.5377 7.05567 16.1581 6.965 15.7274 6.965C15.4101 6.965 15.1494 7.00467 14.9454 7.084C14.7414 7.16333 14.5657 7.254 14.4184 7.356C14.2824 7.458 14.1577 7.54867 14.0444 7.628C13.9424 7.70733 13.8234 7.747 13.6874 7.747H12.1234C12.0214 7.747 11.9307 7.713 11.8514 7.645C11.7834 7.56567 11.7494 7.475 11.7494 7.373L12.3444 1.559C12.3557 1.41167 12.4067 1.29833 12.4974 1.219C12.5881 1.13967 12.6957 1.1 12.8204 1.1H19.2124C19.3257 1.1 19.4221 1.13967 19.5014 1.219C19.5807 1.29833 19.6204 1.39467 19.6204 1.508V2.647C19.6204 2.76033 19.5807 2.85667 19.5014 2.936C19.4221 3.01533 19.3257 3.055 19.2124 3.055H14.2994L14.0274 5.826C14.2314 5.69 14.5034 5.55967 14.8434 5.435C15.1834 5.31033 15.6537 5.248 16.2544 5.248C16.7984 5.248 17.3141 5.33867 17.8014 5.52C18.3001 5.69 18.7421 5.945 19.1274 6.285C19.5127 6.61367 19.8131 7.016 20.0284 7.492C20.2551 7.95667 20.3684 8.48933 20.3684 9.09C20.3684 9.91733 20.1757 10.637 19.7904 11.249C19.4051 11.861 18.8667 12.337 18.1754 12.677C17.4841 13.017 16.6681 13.187 15.7274 13.187ZM26.6434 13.17C25.8387 13.17 25.153 13.051 24.5864 12.813C24.0197 12.575 23.555 12.2463 23.1924 11.827C22.8297 11.4077 22.5577 10.926 22.3764 10.382C22.195 9.82667 22.0874 9.23733 22.0534 8.614C22.042 8.308 22.0307 7.97367 22.0194 7.611C22.0194 7.237 22.0194 6.863 22.0194 6.489C22.0307 6.115 22.042 5.76933 22.0534 5.452C22.076 4.82867 22.1837 4.245 22.3764 3.701C22.569 3.14567 22.8467 2.664 23.2094 2.256C23.5834 1.848 24.0537 1.525 24.6204 1.287C25.187 1.049 25.8614 0.929999 26.6434 0.929999C27.4367 0.929999 28.1167 1.049 28.6834 1.287C29.25 1.525 29.7147 1.848 30.0774 2.256C30.4514 2.664 30.7291 3.14567 30.9104 3.701C31.103 4.245 31.2107 4.82867 31.2334 5.452C31.2561 5.76933 31.2674 6.115 31.2674 6.489C31.2674 6.863 31.2674 7.237 31.2674 7.611C31.2674 7.97367 31.2561 8.308 31.2334 8.614C31.2107 9.23733 31.1087 9.82667 30.9274 10.382C30.746 10.926 30.474 11.4077 30.1114 11.827C29.7487 12.2463 29.2784 12.575 28.7004 12.813C28.1337 13.051 27.448 13.17 26.6434 13.17ZM26.6434 11.215C27.38 11.215 27.9184 10.977 28.2584 10.501C28.6097 10.0137 28.791 9.35633 28.8024 8.529C28.825 8.20033 28.8364 7.87167 28.8364 7.543C28.8364 7.203 28.8364 6.863 28.8364 6.523C28.8364 6.183 28.825 5.86 28.8024 5.554C28.791 4.74933 28.6097 4.10333 28.2584 3.616C27.9184 3.11733 27.38 2.868 26.6434 2.868C25.918 2.868 25.3797 3.11733 25.0284 3.616C24.6884 4.10333 24.507 4.74933 24.4844 5.554C24.4844 5.86 24.4787 6.183 24.4674 6.523C24.4674 6.863 24.4674 7.203 24.4674 7.543C24.4787 7.87167 24.4844 8.20033 24.4844 8.529C24.507 9.35633 24.694 10.0137 25.0454 10.501C25.3967 10.977 25.9294 11.215 26.6434 11.215ZM33.0776 14.275C32.9756 14.275 32.8963 14.241 32.8396 14.173C32.783 14.105 32.7603 14.02 32.7716 13.918L33.2306 11.028C33.2533 10.8807 33.3043 10.756 33.3836 10.654C33.4743 10.5407 33.6046 10.484 33.7746 10.484H35.3386C35.4293 10.484 35.503 10.518 35.5596 10.586C35.6163 10.6427 35.6446 10.7163 35.6446 10.807C35.6446 10.8863 35.6276 10.96 35.5936 11.028L34.5056 13.85C34.4603 13.9633 34.3923 14.0597 34.3016 14.139C34.2223 14.2297 34.1033 14.275 33.9446 14.275H33.0776ZM41.9334 13.17C41.1288 13.17 40.4431 13.051 39.8764 12.813C39.3098 12.575 38.8451 12.2463 38.4824 11.827C38.1198 11.4077 37.8478 10.926 37.6664 10.382C37.4851 9.82667 37.3774 9.23733 37.3434 8.614C37.3321 8.308 37.3208 7.97367 37.3094 7.611C37.3094 7.237 37.3094 6.863 37.3094 6.489C37.3208 6.115 37.3321 5.76933 37.3434 5.452C37.3661 4.82867 37.4738 4.245 37.6664 3.701C37.8591 3.14567 38.1368 2.664 38.4994 2.256C38.8734 1.848 39.3438 1.525 39.9104 1.287C40.4771 1.049 41.1514 0.929999 41.9334 0.929999C42.7268 0.929999 43.4068 1.049 43.9734 1.287C44.5401 1.525 45.0048 1.848 45.3674 2.256C45.7414 2.664 46.0191 3.14567 46.2004 3.701C46.3931 4.245 46.5008 4.82867 46.5234 5.452C46.5461 5.76933 46.5574 6.115 46.5574 6.489C46.5574 6.863 46.5574 7.237 46.5574 7.611C46.5574 7.97367 46.5461 8.308 46.5234 8.614C46.5008 9.23733 46.3988 9.82667 46.2174 10.382C46.0361 10.926 45.7641 11.4077 45.4014 11.827C45.0388 12.2463 44.5684 12.575 43.9904 12.813C43.4238 13.051 42.7381 13.17 41.9334 13.17ZM41.9334 11.215C42.6701 11.215 43.2084 10.977 43.5484 10.501C43.8998 10.0137 44.0811 9.35633 44.0924 8.529C44.1151 8.20033 44.1264 7.87167 44.1264 7.543C44.1264 7.203 44.1264 6.863 44.1264 6.523C44.1264 6.183 44.1151 5.86 44.0924 5.554C44.0811 4.74933 43.8998 4.10333 43.5484 3.616C43.2084 3.11733 42.6701 2.868 41.9334 2.868C41.2081 2.868 40.6698 3.11733 40.3184 3.616C39.9784 4.10333 39.7971 4.74933 39.7744 5.554C39.7744 5.86 39.7688 6.183 39.7574 6.523C39.7574 6.863 39.7574 7.203 39.7574 7.543C39.7688 7.87167 39.7744 8.20033 39.7744 8.529C39.7971 9.35633 39.9841 10.0137 40.3354 10.501C40.6868 10.977 41.2194 11.215 41.9334 11.215ZM53.1063 13.17C52.3016 13.17 51.6159 13.051 51.0493 12.813C50.4826 12.575 50.0179 12.2463 49.6553 11.827C49.2926 11.4077 49.0206 10.926 48.8393 10.382C48.6579 9.82667 48.5503 9.23733 48.5163 8.614C48.5049 8.308 48.4936 7.97367 48.4823 7.611C48.4823 7.237 48.4823 6.863 48.4823 6.489C48.4936 6.115 48.5049 5.76933 48.5163 5.452C48.5389 4.82867 48.6466 4.245 48.8393 3.701C49.0319 3.14567 49.3096 2.664 49.6723 2.256C50.0463 1.848 50.5166 1.525 51.0833 1.287C51.6499 1.049 52.3243 0.929999 53.1063 0.929999C53.8996 0.929999 54.5796 1.049 55.1463 1.287C55.7129 1.525 56.1776 1.848 56.5403 2.256C56.9143 2.664 57.1919 3.14567 57.3733 3.701C57.5659 4.245 57.6736 4.82867 57.6963 5.452C57.7189 5.76933 57.7303 6.115 57.7303 6.489C57.7303 6.863 57.7303 7.237 57.7303 7.611C57.7303 7.97367 57.7189 8.308 57.6963 8.614C57.6736 9.23733 57.5716 9.82667 57.3903 10.382C57.2089 10.926 56.9369 11.4077 56.5743 11.827C56.2116 12.2463 55.7413 12.575 55.1633 12.813C54.5966 13.051 53.9109 13.17 53.1063 13.17ZM53.1063 11.215C53.8429 11.215 54.3813 10.977 54.7213 10.501C55.0726 10.0137 55.2539 9.35633 55.2653 8.529C55.2879 8.20033 55.2993 7.87167 55.2993 7.543C55.2993 7.203 55.2993 6.863 55.2993 6.523C55.2993 6.183 55.2879 5.86 55.2653 5.554C55.2539 4.74933 55.0726 4.10333 54.7213 3.616C54.3813 3.11733 53.8429 2.868 53.1063 2.868C52.3809 2.868 51.8426 3.11733 51.4913 3.616C51.1513 4.10333 50.9699 4.74933 50.9473 5.554C50.9473 5.86 50.9416 6.183 50.9303 6.523C50.9303 6.863 50.9303 7.203 50.9303 7.543C50.9416 7.87167 50.9473 8.20033 50.9473 8.529C50.9699 9.35633 51.1569 10.0137 51.5083 10.501C51.8596 10.977 52.3923 11.215 53.1063 11.215ZM64.2791 13.17C63.4745 13.17 62.7888 13.051 62.2221 12.813C61.6555 12.575 61.1908 12.2463 60.8281 11.827C60.4655 11.4077 60.1935 10.926 60.0121 10.382C59.8308 9.82667 59.7231 9.23733 59.6891 8.614C59.6778 8.308 59.6665 7.97367 59.6551 7.611C59.6551 7.237 59.6551 6.863 59.6551 6.489C59.6665 6.115 59.6778 5.76933 59.6891 5.452C59.7118 4.82867 59.8195 4.245 60.0121 3.701C60.2048 3.14567 60.4825 2.664 60.8451 2.256C61.2191 1.848 61.6895 1.525 62.2561 1.287C62.8228 1.049 63.4971 0.929999 64.2791 0.929999C65.0725 0.929999 65.7525 1.049 66.3191 1.287C66.8858 1.525 67.3505 1.848 67.7131 2.256C68.0871 2.664 68.3648 3.14567 68.5461 3.701C68.7388 4.245 68.8465 4.82867 68.8691 5.452C68.8918 5.76933 68.9031 6.115 68.9031 6.489C68.9031 6.863 68.9031 7.237 68.9031 7.611C68.9031 7.97367 68.8918 8.308 68.8691 8.614C68.8465 9.23733 68.7445 9.82667 68.5631 10.382C68.3818 10.926 68.1098 11.4077 67.7471 11.827C67.3845 12.2463 66.9141 12.575 66.3361 12.813C65.7695 13.051 65.0838 13.17 64.2791 13.17ZM64.2791 11.215C65.0158 11.215 65.5541 10.977 65.8941 10.501C66.2455 10.0137 66.4268 9.35633 66.4381 8.529C66.4608 8.20033 66.4721 7.87167 66.4721 7.543C66.4721 7.203 66.4721 6.863 66.4721 6.523C66.4721 6.183 66.4608 5.86 66.4381 5.554C66.4268 4.74933 66.2455 4.10333 65.8941 3.616C65.5541 3.11733 65.0158 2.868 64.2791 2.868C63.5538 2.868 63.0155 3.11733 62.6641 3.616C62.3241 4.10333 62.1428 4.74933 62.1201 5.554C62.1201 5.86 62.1145 6.183 62.1031 6.523C62.1031 6.863 62.1031 7.203 62.1031 7.543C62.1145 7.87167 62.1201 8.20033 62.1201 8.529C62.1428 9.35633 62.3298 10.0137 62.6811 10.501C63.0325 10.977 63.5651 11.215 64.2791 11.215ZM74.602 12.439C74.4886 12.439 74.3923 12.3993 74.313 12.32C74.2336 12.2407 74.194 12.1443 74.194 12.031V8.716H70.93C70.8166 8.716 70.7203 8.67633 70.641 8.597C70.5616 8.51767 70.522 8.42133 70.522 8.308V7.407C70.522 7.28233 70.5616 7.186 70.641 7.118C70.7203 7.03867 70.8166 6.999 70.93 6.999H74.194V3.769C74.194 3.65567 74.2336 3.55933 74.313 3.48C74.3923 3.40067 74.4886 3.361 74.602 3.361H75.588C75.7126 3.361 75.809 3.40067 75.877 3.48C75.9563 3.55933 75.996 3.65567 75.996 3.769V6.999H79.26C79.3733 6.999 79.4696 7.03867 79.549 7.118C79.6283 7.186 79.668 7.28233 79.668 7.407V8.308C79.668 8.42133 79.6283 8.51767 79.549 8.597C79.4696 8.67633 79.3733 8.716 79.26 8.716H75.996V12.031C75.996 12.1443 75.9563 12.2407 75.877 12.32C75.809 12.3993 75.7126 12.439 75.588 12.439H74.602Z" fill="#E67E22"/>
<path d="M85.7331 13C85.6198 13 85.5235 12.9603 85.4441 12.881C85.3648 12.8017 85.3251 12.7053 85.3251 12.592V4.568C85.3251 4.45467 85.3648 4.35833 85.4441 4.279C85.5235 4.19967 85.6198 4.16 85.7331 4.16H87.0591C87.1725 4.16 87.2688 4.19967 87.3481 4.279C87.4275 4.35833 87.4671 4.45467 87.4671 4.568V5.146C87.7051 4.82867 88.0225 4.56233 88.4191 4.347C88.8271 4.12033 89.3088 4.00133 89.8641 3.99C91.1561 3.96733 92.0571 4.47167 92.5671 5.503C92.8278 5.04967 93.2018 4.687 93.6891 4.415C94.1878 4.13167 94.7375 3.99 95.3381 3.99C95.9275 3.99 96.4601 4.126 96.9361 4.398C97.4235 4.67 97.8031 5.08367 98.0751 5.639C98.3585 6.183 98.5001 6.87433 98.5001 7.713V12.592C98.5001 12.7053 98.4605 12.8017 98.3811 12.881C98.3018 12.9603 98.2055 13 98.0921 13H96.6981C96.5848 13 96.4885 12.9603 96.4091 12.881C96.3298 12.8017 96.2901 12.7053 96.2901 12.592V7.849C96.2901 7.339 96.2165 6.93667 96.0691 6.642C95.9218 6.336 95.7235 6.12067 95.4741 5.996C95.2248 5.87133 94.9471 5.809 94.6411 5.809C94.3918 5.809 94.1425 5.87133 93.8931 5.996C93.6438 6.12067 93.4398 6.336 93.2811 6.642C93.1225 6.93667 93.0431 7.339 93.0431 7.849V12.592C93.0431 12.7053 93.0035 12.8017 92.9241 12.881C92.8448 12.9603 92.7485 13 92.6351 13H91.2411C91.1165 13 91.0145 12.9603 90.9351 12.881C90.8671 12.8017 90.8331 12.7053 90.8331 12.592V7.849C90.8331 7.339 90.7538 6.93667 90.5951 6.642C90.4365 6.336 90.2325 6.12067 89.9831 5.996C89.7338 5.87133 89.4675 5.809 89.1841 5.809C88.9235 5.809 88.6685 5.877 88.4191 6.013C88.1698 6.13767 87.9658 6.34733 87.8071 6.642C87.6485 6.93667 87.5691 7.339 87.5691 7.849V12.592C87.5691 12.7053 87.5295 12.8017 87.4501 12.881C87.3708 12.9603 87.2745 13 87.1611 13H85.7331ZM104.473 13.17C103.215 13.17 102.218 12.8073 101.481 12.082C100.744 11.3567 100.348 10.3253 100.291 8.988C100.28 8.87467 100.274 8.733 100.274 8.563C100.274 8.38167 100.28 8.24 100.291 8.138C100.336 7.288 100.529 6.55133 100.869 5.928C101.22 5.30467 101.702 4.82867 102.314 4.5C102.926 4.16 103.646 3.99 104.473 3.99C105.391 3.99 106.162 4.18267 106.785 4.568C107.408 4.942 107.879 5.469 108.196 6.149C108.513 6.81767 108.672 7.594 108.672 8.478V8.835C108.672 8.94833 108.632 9.04467 108.553 9.124C108.474 9.20333 108.372 9.243 108.247 9.243H102.603C102.603 9.243 102.603 9.26 102.603 9.294C102.603 9.328 102.603 9.35633 102.603 9.379C102.614 9.77567 102.688 10.144 102.824 10.484C102.971 10.8127 103.181 11.079 103.453 11.283C103.736 11.487 104.071 11.589 104.456 11.589C104.773 11.589 105.04 11.5437 105.255 11.453C105.47 11.351 105.646 11.2377 105.782 11.113C105.918 10.9883 106.014 10.8863 106.071 10.807C106.173 10.671 106.252 10.5917 106.309 10.569C106.377 10.535 106.473 10.518 106.598 10.518H108.06C108.173 10.518 108.264 10.552 108.332 10.62C108.411 10.688 108.445 10.773 108.434 10.875C108.423 11.0563 108.326 11.2773 108.145 11.538C107.975 11.7987 107.726 12.0537 107.397 12.303C107.068 12.5523 106.655 12.762 106.156 12.932C105.669 13.0907 105.108 13.17 104.473 13.17ZM102.603 7.815H106.36V7.764C106.36 7.322 106.286 6.93667 106.139 6.608C105.992 6.27933 105.776 6.01867 105.493 5.826C105.21 5.63333 104.87 5.537 104.473 5.537C104.076 5.537 103.736 5.63333 103.453 5.826C103.17 6.01867 102.954 6.27933 102.807 6.608C102.671 6.93667 102.603 7.322 102.603 7.764V7.815ZM113.043 13.17C112.454 13.17 111.921 13.0567 111.445 12.83C110.969 12.592 110.59 12.2803 110.306 11.895C110.034 11.4983 109.898 11.0563 109.898 10.569C109.898 9.77567 110.216 9.14667 110.85 8.682C111.496 8.206 112.346 7.88867 113.4 7.73L115.729 7.39V7.033C115.729 6.557 115.61 6.18867 115.372 5.928C115.134 5.66733 114.726 5.537 114.148 5.537C113.74 5.537 113.406 5.622 113.145 5.792C112.896 5.95067 112.709 6.166 112.584 6.438C112.494 6.58533 112.363 6.659 112.193 6.659H110.85C110.726 6.659 110.629 6.625 110.561 6.557C110.505 6.489 110.476 6.39833 110.476 6.285C110.488 6.10367 110.561 5.88267 110.697 5.622C110.833 5.36133 111.049 5.112 111.343 4.874C111.638 4.62467 112.018 4.415 112.482 4.245C112.947 4.075 113.508 3.99 114.165 3.99C114.879 3.99 115.48 4.08067 115.967 4.262C116.466 4.432 116.863 4.66433 117.157 4.959C117.452 5.25367 117.667 5.59933 117.803 5.996C117.939 6.39267 118.007 6.812 118.007 7.254V12.592C118.007 12.7053 117.968 12.8017 117.888 12.881C117.809 12.9603 117.713 13 117.599 13H116.222C116.098 13 115.996 12.9603 115.916 12.881C115.848 12.8017 115.814 12.7053 115.814 12.592V11.929C115.667 12.1443 115.469 12.3483 115.219 12.541C114.97 12.7223 114.664 12.8753 114.301 13C113.95 13.1133 113.531 13.17 113.043 13.17ZM113.621 11.555C114.018 11.555 114.375 11.47 114.692 11.3C115.021 11.13 115.276 10.8693 115.457 10.518C115.65 10.1553 115.746 9.702 115.746 9.158V8.801L114.046 9.073C113.378 9.175 112.879 9.33933 112.55 9.566C112.222 9.79267 112.057 10.0703 112.057 10.399C112.057 10.6483 112.131 10.8637 112.278 11.045C112.437 11.215 112.635 11.3453 112.873 11.436C113.111 11.5153 113.361 11.555 113.621 11.555ZM120.613 13C120.5 13 120.404 12.9603 120.324 12.881C120.245 12.8017 120.205 12.7053 120.205 12.592V1.338C120.205 1.22467 120.245 1.12833 120.324 1.049C120.404 0.969666 120.5 0.929999 120.613 0.929999H122.024C122.138 0.929999 122.234 0.969666 122.313 1.049C122.393 1.12833 122.432 1.22467 122.432 1.338V12.592C122.432 12.7053 122.393 12.8017 122.313 12.881C122.234 12.9603 122.138 13 122.024 13H120.613ZM128.036 13.17C127.356 13.17 126.773 13.0907 126.285 12.932C125.809 12.7733 125.418 12.575 125.112 12.337C124.806 12.099 124.58 11.861 124.432 11.623C124.285 11.385 124.206 11.1867 124.194 11.028C124.183 10.9033 124.217 10.807 124.296 10.739C124.387 10.6597 124.483 10.62 124.585 10.62H125.928C125.974 10.62 126.013 10.6257 126.047 10.637C126.081 10.6483 126.127 10.6823 126.183 10.739C126.331 10.8637 126.484 10.994 126.642 11.13C126.812 11.266 127.011 11.385 127.237 11.487C127.464 11.5777 127.747 11.623 128.087 11.623C128.529 11.623 128.898 11.538 129.192 11.368C129.498 11.1867 129.651 10.9317 129.651 10.603C129.651 10.365 129.583 10.1723 129.447 10.025C129.323 9.87767 129.085 9.74733 128.733 9.634C128.382 9.50933 127.883 9.379 127.237 9.243C126.603 9.09567 126.076 8.90867 125.656 8.682C125.237 8.45533 124.925 8.172 124.721 7.832C124.517 7.492 124.415 7.09533 124.415 6.642C124.415 6.2 124.546 5.78067 124.806 5.384C125.078 4.976 125.475 4.64167 125.996 4.381C126.529 4.12033 127.186 3.99 127.968 3.99C128.58 3.99 129.113 4.06933 129.566 4.228C130.02 4.37533 130.394 4.56233 130.688 4.789C130.994 5.01567 131.227 5.248 131.385 5.486C131.544 5.71267 131.629 5.911 131.64 6.081C131.652 6.20567 131.618 6.30767 131.538 6.387C131.459 6.455 131.368 6.489 131.266 6.489H130.008C129.952 6.489 129.901 6.47767 129.855 6.455C129.81 6.43233 129.765 6.404 129.719 6.37C129.595 6.25667 129.459 6.13767 129.311 6.013C129.164 5.88833 128.983 5.78067 128.767 5.69C128.563 5.588 128.291 5.537 127.951 5.537C127.521 5.537 127.192 5.63333 126.965 5.826C126.739 6.00733 126.625 6.23967 126.625 6.523C126.625 6.71567 126.676 6.88567 126.778 7.033C126.892 7.169 127.113 7.29933 127.441 7.424C127.77 7.54867 128.269 7.679 128.937 7.815C129.697 7.951 130.297 8.155 130.739 8.427C131.193 8.68767 131.51 8.99367 131.691 9.345C131.884 9.685 131.98 10.0647 131.98 10.484C131.98 10.994 131.827 11.453 131.521 11.861C131.227 12.269 130.785 12.592 130.195 12.83C129.617 13.0567 128.898 13.17 128.036 13.17ZM140.901 13.17C140.312 13.17 139.79 13.0737 139.337 12.881C138.895 12.677 138.527 12.3937 138.232 12.031C137.937 11.6683 137.711 11.2433 137.552 10.756C137.393 10.2573 137.303 9.71333 137.28 9.124C137.269 8.92 137.263 8.73867 137.263 8.58C137.263 8.41 137.269 8.223 137.28 8.019C137.303 7.45233 137.388 6.92533 137.535 6.438C137.694 5.95067 137.92 5.52567 138.215 5.163C138.521 4.789 138.895 4.5 139.337 4.296C139.79 4.092 140.312 3.99 140.901 3.99C141.513 3.99 142.029 4.09767 142.448 4.313C142.879 4.517 143.236 4.78333 143.519 5.112V1.338C143.519 1.22467 143.553 1.12833 143.621 1.049C143.7 0.969666 143.802 0.929999 143.927 0.929999H145.372C145.485 0.929999 145.582 0.969666 145.661 1.049C145.74 1.12833 145.78 1.22467 145.78 1.338V12.592C145.78 12.7053 145.74 12.8017 145.661 12.881C145.582 12.9603 145.485 13 145.372 13H144.029C143.904 13 143.802 12.9603 143.723 12.881C143.655 12.8017 143.621 12.7053 143.621 12.592V11.963C143.338 12.3143 142.975 12.6033 142.533 12.83C142.102 13.0567 141.558 13.17 140.901 13.17ZM141.53 11.351C142.006 11.351 142.386 11.2433 142.669 11.028C142.952 10.8127 143.162 10.5407 143.298 10.212C143.434 9.872 143.508 9.52633 143.519 9.175C143.53 8.971 143.536 8.75567 143.536 8.529C143.536 8.291 143.53 8.07 143.519 7.866C143.508 7.526 143.428 7.203 143.281 6.897C143.134 6.57967 142.918 6.319 142.635 6.115C142.352 5.911 141.983 5.809 141.53 5.809C141.054 5.809 140.674 5.91667 140.391 6.132C140.119 6.336 139.921 6.608 139.796 6.948C139.671 7.288 139.598 7.662 139.575 8.07C139.564 8.41 139.564 8.75 139.575 9.09C139.598 9.498 139.671 9.872 139.796 10.212C139.921 10.552 140.119 10.8297 140.391 11.045C140.674 11.249 141.054 11.351 141.53 11.351ZM151.854 13.17C150.596 13.17 149.598 12.8073 148.862 12.082C148.125 11.3567 147.728 10.3253 147.672 8.988C147.66 8.87467 147.655 8.733 147.655 8.563C147.655 8.38167 147.66 8.24 147.672 8.138C147.717 7.288 147.91 6.55133 148.25 5.928C148.601 5.30467 149.083 4.82867 149.695 4.5C150.307 4.16 151.026 3.99 151.854 3.99C152.772 3.99 153.542 4.18267 154.166 4.568C154.789 4.942 155.259 5.469 155.577 6.149C155.894 6.81767 156.053 7.594 156.053 8.478V8.835C156.053 8.94833 156.013 9.04467 155.934 9.124C155.854 9.20333 155.752 9.243 155.628 9.243H149.984C149.984 9.243 149.984 9.26 149.984 9.294C149.984 9.328 149.984 9.35633 149.984 9.379C149.995 9.77567 150.069 10.144 150.205 10.484C150.352 10.8127 150.562 11.079 150.834 11.283C151.117 11.487 151.451 11.589 151.837 11.589C152.154 11.589 152.42 11.5437 152.636 11.453C152.851 11.351 153.027 11.2377 153.163 11.113C153.299 10.9883 153.395 10.8863 153.452 10.807C153.554 10.671 153.633 10.5917 153.69 10.569C153.758 10.535 153.854 10.518 153.979 10.518H155.441C155.554 10.518 155.645 10.552 155.713 10.62C155.792 10.688 155.826 10.773 155.815 10.875C155.803 11.0563 155.707 11.2773 155.526 11.538C155.356 11.7987 155.106 12.0537 154.778 12.303C154.449 12.5523 154.035 12.762 153.537 12.932C153.049 13.0907 152.488 13.17 151.854 13.17ZM149.984 7.815H153.741V7.764C153.741 7.322 153.667 6.93667 153.52 6.608C153.372 6.27933 153.157 6.01867 152.874 5.826C152.59 5.63333 152.25 5.537 151.854 5.537C151.457 5.537 151.117 5.63333 150.834 5.826C150.55 6.01867 150.335 6.27933 150.188 6.608C150.052 6.93667 149.984 7.322 149.984 7.764V7.815ZM158.282 13C158.169 13 158.073 12.9603 157.993 12.881C157.914 12.8017 157.874 12.7053 157.874 12.592V1.338C157.874 1.22467 157.914 1.12833 157.993 1.049C158.073 0.969666 158.169 0.929999 158.282 0.929999H159.693C159.807 0.929999 159.903 0.969666 159.982 1.049C160.062 1.12833 160.101 1.22467 160.101 1.338V12.592C160.101 12.7053 160.062 12.8017 159.982 12.881C159.903 12.9603 159.807 13 159.693 13H158.282ZM163.13 13C163.016 13 162.92 12.9603 162.841 12.881C162.761 12.8017 162.722 12.7053 162.722 12.592V4.568C162.722 4.45467 162.761 4.35833 162.841 4.279C162.92 4.19967 163.016 4.16 163.13 4.16H164.541C164.665 4.16 164.762 4.19967 164.83 4.279C164.909 4.35833 164.949 4.45467 164.949 4.568V12.592C164.949 12.7053 164.909 12.8017 164.83 12.881C164.762 12.9603 164.665 13 164.541 13H163.13ZM163.062 2.698C162.937 2.698 162.835 2.664 162.756 2.596C162.688 2.51667 162.654 2.41467 162.654 2.29V1.066C162.654 0.952666 162.688 0.856333 162.756 0.776999C162.835 0.697666 162.937 0.658 163.062 0.658H164.609C164.733 0.658 164.835 0.697666 164.915 0.776999C164.994 0.856333 165.034 0.952666 165.034 1.066V2.29C165.034 2.41467 164.994 2.51667 164.915 2.596C164.835 2.664 164.733 2.698 164.609 2.698H163.062ZM170.332 13C170.151 13 170.015 12.9603 169.924 12.881C169.845 12.7903 169.777 12.6883 169.72 12.575L166.541 4.687C166.518 4.63033 166.507 4.57933 166.507 4.534C166.507 4.432 166.541 4.347 166.609 4.279C166.688 4.19967 166.779 4.16 166.881 4.16H168.258C168.394 4.16 168.496 4.19967 168.564 4.279C168.632 4.347 168.677 4.415 168.7 4.483L170.961 10.45L173.222 4.483C173.245 4.415 173.29 4.347 173.358 4.279C173.426 4.19967 173.528 4.16 173.664 4.16H175.058C175.149 4.16 175.228 4.19967 175.296 4.279C175.375 4.347 175.415 4.432 175.415 4.534C175.415 4.57933 175.409 4.63033 175.398 4.687L172.202 12.575C172.157 12.6883 172.089 12.7903 171.998 12.881C171.907 12.9603 171.771 13 171.59 13H170.332ZM180.458 13.17C179.2 13.17 178.203 12.8073 177.466 12.082C176.73 11.3567 176.333 10.3253 176.276 8.988C176.265 8.87467 176.259 8.733 176.259 8.563C176.259 8.38167 176.265 8.24 176.276 8.138C176.322 7.288 176.514 6.55133 176.854 5.928C177.206 5.30467 177.687 4.82867 178.299 4.5C178.911 4.16 179.631 3.99 180.458 3.99C181.376 3.99 182.147 4.18267 182.77 4.568C183.394 4.942 183.864 5.469 184.181 6.149C184.499 6.81767 184.657 7.594 184.657 8.478V8.835C184.657 8.94833 184.618 9.04467 184.538 9.124C184.459 9.20333 184.357 9.243 184.232 9.243H178.588C178.588 9.243 178.588 9.26 178.588 9.294C178.588 9.328 178.588 9.35633 178.588 9.379C178.6 9.77567 178.673 10.144 178.809 10.484C178.957 10.8127 179.166 11.079 179.438 11.283C179.722 11.487 180.056 11.589 180.441 11.589C180.759 11.589 181.025 11.5437 181.24 11.453C181.456 11.351 181.631 11.2377 181.767 11.113C181.903 10.9883 182 10.8863 182.056 10.807C182.158 10.671 182.238 10.5917 182.294 10.569C182.362 10.535 182.459 10.518 182.583 10.518H184.045C184.159 10.518 184.249 10.552 184.317 10.62C184.397 10.688 184.431 10.773 184.419 10.875C184.408 11.0563 184.312 11.2773 184.13 11.538C183.96 11.7987 183.711 12.0537 183.382 12.303C183.054 12.5523 182.64 12.762 182.141 12.932C181.654 13.0907 181.093 13.17 180.458 13.17ZM178.588 7.815H182.345V7.764C182.345 7.322 182.272 6.93667 182.124 6.608C181.977 6.27933 181.762 6.01867 181.478 5.826C181.195 5.63333 180.855 5.537 180.458 5.537C180.062 5.537 179.722 5.63333 179.438 5.826C179.155 6.01867 178.94 6.27933 178.792 6.608C178.656 6.93667 178.588 7.322 178.588 7.764V7.815ZM186.87 13C186.757 13 186.66 12.9603 186.581 12.881C186.502 12.8017 186.462 12.7053 186.462 12.592V4.585C186.462 4.46033 186.502 4.35833 186.581 4.279C186.66 4.19967 186.757 4.16 186.87 4.16H188.247C188.36 4.16 188.457 4.19967 188.536 4.279C188.627 4.35833 188.672 4.46033 188.672 4.585V5.282C188.933 4.91933 189.267 4.64167 189.675 4.449C190.094 4.25633 190.576 4.16 191.12 4.16H191.817C191.942 4.16 192.038 4.19967 192.106 4.279C192.185 4.35833 192.225 4.45467 192.225 4.568V5.792C192.225 5.90533 192.185 6.00167 192.106 6.081C192.038 6.16033 191.942 6.2 191.817 6.2H190.491C189.947 6.2 189.522 6.353 189.216 6.659C188.921 6.965 188.774 7.38433 188.774 7.917V12.592C188.774 12.7053 188.734 12.8017 188.655 12.881C188.576 12.9603 188.474 13 188.349 13H186.87ZM197.243 13.17C195.985 13.17 194.987 12.8073 194.251 12.082C193.514 11.3567 193.117 10.3253 193.061 8.988C193.049 8.87467 193.044 8.733 193.044 8.563C193.044 8.38167 193.049 8.24 193.061 8.138C193.106 7.288 193.299 6.55133 193.639 5.928C193.99 5.30467 194.472 4.82867 195.084 4.5C195.696 4.16 196.415 3.99 197.243 3.99C198.161 3.99 198.931 4.18267 199.555 4.568C200.178 4.942 200.648 5.469 200.966 6.149C201.283 6.81767 201.442 7.594 201.442 8.478V8.835C201.442 8.94833 201.402 9.04467 201.323 9.124C201.243 9.20333 201.141 9.243 201.017 9.243H195.373C195.373 9.243 195.373 9.26 195.373 9.294C195.373 9.328 195.373 9.35633 195.373 9.379C195.384 9.77567 195.458 10.144 195.594 10.484C195.741 10.8127 195.951 11.079 196.223 11.283C196.506 11.487 196.84 11.589 197.226 11.589C197.543 11.589 197.809 11.5437 198.025 11.453C198.24 11.351 198.416 11.2377 198.552 11.113C198.688 10.9883 198.784 10.8863 198.841 10.807C198.943 10.671 199.022 10.5917 199.079 10.569C199.147 10.535 199.243 10.518 199.368 10.518H200.83C200.943 10.518 201.034 10.552 201.102 10.62C201.181 10.688 201.215 10.773 201.204 10.875C201.192 11.0563 201.096 11.2773 200.915 11.538C200.745 11.7987 200.495 12.0537 200.167 12.303C199.838 12.5523 199.424 12.762 198.926 12.932C198.438 13.0907 197.877 13.17 197.243 13.17ZM195.373 7.815H199.13V7.764C199.13 7.322 199.056 6.93667 198.909 6.608C198.761 6.27933 198.546 6.01867 198.263 5.826C197.979 5.63333 197.639 5.537 197.243 5.537C196.846 5.537 196.506 5.63333 196.223 5.826C195.939 6.01867 195.724 6.27933 195.577 6.608C195.441 6.93667 195.373 7.322 195.373 7.764V7.815ZM206.527 13.17C205.938 13.17 205.416 13.0737 204.963 12.881C204.521 12.677 204.153 12.3937 203.858 12.031C203.563 11.6683 203.337 11.2433 203.178 10.756C203.019 10.2573 202.929 9.71333 202.906 9.124C202.895 8.92 202.889 8.73867 202.889 8.58C202.889 8.41 202.895 8.223 202.906 8.019C202.929 7.45233 203.014 6.92533 203.161 6.438C203.32 5.95067 203.546 5.52567 203.841 5.163C204.147 4.789 204.521 4.5 204.963 4.296C205.416 4.092 205.938 3.99 206.527 3.99C207.139 3.99 207.655 4.09767 208.074 4.313C208.505 4.517 208.862 4.78333 209.145 5.112V1.338C209.145 1.22467 209.179 1.12833 209.247 1.049C209.326 0.969666 209.428 0.929999 209.553 0.929999H210.998C211.111 0.929999 211.208 0.969666 211.287 1.049C211.366 1.12833 211.406 1.22467 211.406 1.338V12.592C211.406 12.7053 211.366 12.8017 211.287 12.881C211.208 12.9603 211.111 13 210.998 13H209.655C209.53 13 209.428 12.9603 209.349 12.881C209.281 12.8017 209.247 12.7053 209.247 12.592V11.963C208.964 12.3143 208.601 12.6033 208.159 12.83C207.728 13.0567 207.184 13.17 206.527 13.17ZM207.156 11.351C207.632 11.351 208.012 11.2433 208.295 11.028C208.578 10.8127 208.788 10.5407 208.924 10.212C209.06 9.872 209.134 9.52633 209.145 9.175C209.156 8.971 209.162 8.75567 209.162 8.529C209.162 8.291 209.156 8.07 209.145 7.866C209.134 7.526 209.054 7.203 208.907 6.897C208.76 6.57967 208.544 6.319 208.261 6.115C207.978 5.911 207.609 5.809 207.156 5.809C206.68 5.809 206.3 5.91667 206.017 6.132C205.745 6.336 205.547 6.608 205.422 6.948C205.297 7.288 205.224 7.662 205.201 8.07C205.19 8.41 205.19 8.75 205.201 9.09C205.224 9.498 205.297 9.872 205.422 10.212C205.547 10.552 205.745 10.8297 206.017 11.045C206.3 11.249 206.68 11.351 207.156 11.351ZM217.982 13C217.868 13 217.772 12.9603 217.693 12.881C217.613 12.8017 217.574 12.7053 217.574 12.592V1.338C217.574 1.22467 217.613 1.12833 217.693 1.049C217.772 0.969666 217.868 0.929999 217.982 0.929999H219.393C219.506 0.929999 219.602 0.969666 219.682 1.049C219.761 1.12833 219.801 1.22467 219.801 1.338V12.592C219.801 12.7053 219.761 12.8017 219.682 12.881C219.602 12.9603 219.506 13 219.393 13H217.982ZM224.623 13.17C224.033 13.17 223.501 13.0567 223.025 12.83C222.549 12.592 222.169 12.2803 221.886 11.895C221.614 11.4983 221.478 11.0563 221.478 10.569C221.478 9.77567 221.795 9.14667 222.43 8.682C223.076 8.206 223.926 7.88867 224.98 7.73L227.309 7.39V7.033C227.309 6.557 227.19 6.18867 226.952 5.928C226.714 5.66733 226.306 5.537 225.728 5.537C225.32 5.537 224.985 5.622 224.725 5.792C224.475 5.95067 224.288 6.166 224.164 6.438C224.073 6.58533 223.943 6.659 223.773 6.659H222.43C222.305 6.659 222.209 6.625 222.141 6.557C222.084 6.489 222.056 6.39833 222.056 6.285C222.067 6.10367 222.141 5.88267 222.277 5.622C222.413 5.36133 222.628 5.112 222.923 4.874C223.217 4.62467 223.597 4.415 224.062 4.245C224.526 4.075 225.087 3.99 225.745 3.99C226.459 3.99 227.059 4.08067 227.547 4.262C228.045 4.432 228.442 4.66433 228.737 4.959C229.031 5.25367 229.247 5.59933 229.383 5.996C229.519 6.39267 229.587 6.812 229.587 7.254V12.592C229.587 12.7053 229.547 12.8017 229.468 12.881C229.388 12.9603 229.292 13 229.179 13H227.802C227.677 13 227.575 12.9603 227.496 12.881C227.428 12.8017 227.394 12.7053 227.394 12.592V11.929C227.246 12.1443 227.048 12.3483 226.799 12.541C226.549 12.7223 226.243 12.8753 225.881 13C225.529 13.1133 225.11 13.17 224.623 13.17ZM225.201 11.555C225.597 11.555 225.954 11.47 226.272 11.3C226.6 11.13 226.855 10.8693 227.037 10.518C227.229 10.1553 227.326 9.702 227.326 9.158V8.801L225.626 9.073C224.957 9.175 224.458 9.33933 224.13 9.566C223.801 9.79267 223.637 10.0703 223.637 10.399C223.637 10.6483 223.71 10.8637 223.858 11.045C224.016 11.215 224.215 11.3453 224.453 11.436C224.691 11.5153 224.94 11.555 225.201 11.555ZM235.117 13.17C234.437 13.17 233.853 13.0907 233.366 12.932C232.89 12.7733 232.499 12.575 232.193 12.337C231.887 12.099 231.66 11.861 231.513 11.623C231.365 11.385 231.286 11.1867 231.275 11.028C231.263 10.9033 231.297 10.807 231.377 10.739C231.467 10.6597 231.564 10.62 231.666 10.62H233.009C233.054 10.62 233.094 10.6257 233.128 10.637C233.162 10.6483 233.207 10.6823 233.264 10.739C233.411 10.8637 233.564 10.994 233.723 11.13C233.893 11.266 234.091 11.385 234.318 11.487C234.544 11.5777 234.828 11.623 235.168 11.623C235.61 11.623 235.978 11.538 236.273 11.368C236.579 11.1867 236.732 10.9317 236.732 10.603C236.732 10.365 236.664 10.1723 236.528 10.025C236.403 9.87767 236.165 9.74733 235.814 9.634C235.462 9.50933 234.964 9.379 234.318 9.243C233.683 9.09567 233.156 8.90867 232.737 8.682C232.317 8.45533 232.006 8.172 231.802 7.832C231.598 7.492 231.496 7.09533 231.496 6.642C231.496 6.2 231.626 5.78067 231.887 5.384C232.159 4.976 232.555 4.64167 233.077 4.381C233.609 4.12033 234.267 3.99 235.049 3.99C235.661 3.99 236.193 4.06933 236.647 4.228C237.1 4.37533 237.474 4.56233 237.769 4.789C238.075 5.01567 238.307 5.248 238.466 5.486C238.624 5.71267 238.709 5.911 238.721 6.081C238.732 6.20567 238.698 6.30767 238.619 6.387C238.539 6.455 238.449 6.489 238.347 6.489H237.089C237.032 6.489 236.981 6.47767 236.936 6.455C236.89 6.43233 236.845 6.404 236.8 6.37C236.675 6.25667 236.539 6.13767 236.392 6.013C236.244 5.88833 236.063 5.78067 235.848 5.69C235.644 5.588 235.372 5.537 235.032 5.537C234.601 5.537 234.272 5.63333 234.046 5.826C233.819 6.00733 233.706 6.23967 233.706 6.523C233.706 6.71567 233.757 6.88567 233.859 7.033C233.972 7.169 234.193 7.29933 234.522 7.424C234.85 7.54867 235.349 7.679 236.018 7.815C236.777 7.951 237.378 8.155 237.82 8.427C238.273 8.68767 238.59 8.99367 238.772 9.345C238.964 9.685 239.061 10.0647 239.061 10.484C239.061 10.994 238.908 11.453 238.602 11.861C238.307 12.269 237.865 12.592 237.276 12.83C236.698 13.0567 235.978 13.17 235.117 13.17ZM244.777 13C244.097 13 243.525 12.881 243.06 12.643C242.595 12.405 242.25 12.0537 242.023 11.589C241.796 11.113 241.683 10.5237 241.683 9.821V5.962H240.34C240.227 5.962 240.13 5.92233 240.051 5.843C239.972 5.76367 239.932 5.66733 239.932 5.554V4.568C239.932 4.45467 239.972 4.35833 240.051 4.279C240.13 4.19967 240.227 4.16 240.34 4.16H241.683V1.338C241.683 1.22467 241.717 1.12833 241.785 1.049C241.864 0.969666 241.966 0.929999 242.091 0.929999H243.468C243.581 0.929999 243.678 0.969666 243.757 1.049C243.836 1.12833 243.876 1.22467 243.876 1.338V4.16H246.001C246.114 4.16 246.211 4.19967 246.29 4.279C246.369 4.35833 246.409 4.45467 246.409 4.568V5.554C246.409 5.66733 246.369 5.76367 246.29 5.843C246.211 5.92233 246.114 5.962 246.001 5.962H243.876V9.651C243.876 10.1157 243.955 10.4783 244.114 10.739C244.284 10.9997 244.573 11.13 244.981 11.13H246.154C246.267 11.13 246.364 11.1697 246.443 11.249C246.522 11.3283 246.562 11.4247 246.562 11.538V12.592C246.562 12.7053 246.522 12.8017 246.443 12.881C246.364 12.9603 246.267 13 246.154 13H244.777ZM253.105 16.23C253.014 16.23 252.935 16.196 252.867 16.128C252.799 16.06 252.765 15.9807 252.765 15.89C252.765 15.8447 252.765 15.7993 252.765 15.754C252.776 15.72 252.799 15.6747 252.833 15.618L254.159 12.473L250.895 4.772C250.849 4.65867 250.827 4.57933 250.827 4.534C250.838 4.432 250.878 4.347 250.946 4.279C251.014 4.19967 251.099 4.16 251.201 4.16H252.578C252.714 4.16 252.816 4.194 252.884 4.262C252.952 4.33 253.003 4.40367 253.037 4.483L255.298 10.042L257.627 4.483C257.661 4.39233 257.712 4.31867 257.78 4.262C257.848 4.194 257.95 4.16 258.086 4.16H259.446C259.536 4.16 259.616 4.194 259.684 4.262C259.763 4.33 259.803 4.40933 259.803 4.5C259.803 4.568 259.78 4.65867 259.735 4.772L254.924 15.907C254.878 15.9977 254.822 16.0713 254.754 16.128C254.686 16.196 254.584 16.23 254.448 16.23H253.105ZM264.761 13.17C263.503 13.17 262.506 12.8073 261.769 12.082C261.032 11.3567 260.636 10.3253 260.579 8.988C260.568 8.87467 260.562 8.733 260.562 8.563C260.562 8.38167 260.568 8.24 260.579 8.138C260.624 7.288 260.817 6.55133 261.157 5.928C261.508 5.30467 261.99 4.82867 262.602 4.5C263.214 4.16 263.934 3.99 264.761 3.99C265.679 3.99 266.45 4.18267 267.073 4.568C267.696 4.942 268.167 5.469 268.484 6.149C268.801 6.81767 268.96 7.594 268.96 8.478V8.835C268.96 8.94833 268.92 9.04467 268.841 9.124C268.762 9.20333 268.66 9.243 268.535 9.243H262.891C262.891 9.243 262.891 9.26 262.891 9.294C262.891 9.328 262.891 9.35633 262.891 9.379C262.902 9.77567 262.976 10.144 263.112 10.484C263.259 10.8127 263.469 11.079 263.741 11.283C264.024 11.487 264.359 11.589 264.744 11.589C265.061 11.589 265.328 11.5437 265.543 11.453C265.758 11.351 265.934 11.2377 266.07 11.113C266.206 10.9883 266.302 10.8863 266.359 10.807C266.461 10.671 266.54 10.5917 266.597 10.569C266.665 10.535 266.761 10.518 266.886 10.518H268.348C268.461 10.518 268.552 10.552 268.62 10.62C268.699 10.688 268.733 10.773 268.722 10.875C268.711 11.0563 268.614 11.2773 268.433 11.538C268.263 11.7987 268.014 12.0537 267.685 12.303C267.356 12.5523 266.943 12.762 266.444 12.932C265.957 13.0907 265.396 13.17 264.761 13.17ZM262.891 7.815H266.648V7.764C266.648 7.322 266.574 6.93667 266.427 6.608C266.28 6.27933 266.064 6.01867 265.781 5.826C265.498 5.63333 265.158 5.537 264.761 5.537C264.364 5.537 264.024 5.63333 263.741 5.826C263.458 6.01867 263.242 6.27933 263.095 6.608C262.959 6.93667 262.891 7.322 262.891 7.764V7.815ZM273.332 13.17C272.742 13.17 272.21 13.0567 271.734 12.83C271.258 12.592 270.878 12.2803 270.595 11.895C270.323 11.4983 270.187 11.0563 270.187 10.569C270.187 9.77567 270.504 9.14667 271.139 8.682C271.785 8.206 272.635 7.88867 273.689 7.73L276.018 7.39V7.033C276.018 6.557 275.899 6.18867 275.661 5.928C275.423 5.66733 275.015 5.537 274.437 5.537C274.029 5.537 273.694 5.622 273.434 5.792C273.184 5.95067 272.997 6.166 272.873 6.438C272.782 6.58533 272.652 6.659 272.482 6.659H271.139C271.014 6.659 270.918 6.625 270.85 6.557C270.793 6.489 270.765 6.39833 270.765 6.285C270.776 6.10367 270.85 5.88267 270.986 5.622C271.122 5.36133 271.337 5.112 271.632 4.874C271.926 4.62467 272.306 4.415 272.771 4.245C273.235 4.075 273.796 3.99 274.454 3.99C275.168 3.99 275.768 4.08067 276.256 4.262C276.754 4.432 277.151 4.66433 277.446 4.959C277.74 5.25367 277.956 5.59933 278.092 5.996C278.228 6.39267 278.296 6.812 278.296 7.254V12.592C278.296 12.7053 278.256 12.8017 278.177 12.881C278.097 12.9603 278.001 13 277.888 13H276.511C276.386 13 276.284 12.9603 276.205 12.881C276.137 12.8017 276.103 12.7053 276.103 12.592V11.929C275.955 12.1443 275.757 12.3483 275.508 12.541C275.258 12.7223 274.952 12.8753 274.59 13C274.238 13.1133 273.819 13.17 273.332 13.17ZM273.91 11.555C274.306 11.555 274.663 11.47 274.981 11.3C275.309 11.13 275.564 10.8693 275.746 10.518C275.938 10.1553 276.035 9.702 276.035 9.158V8.801L274.335 9.073C273.666 9.175 273.167 9.33933 272.839 9.566C272.51 9.79267 272.346 10.0703 272.346 10.399C272.346 10.6483 272.419 10.8637 272.567 11.045C272.725 11.215 272.924 11.3453 273.162 11.436C273.4 11.5153 273.649 11.555 273.91 11.555ZM284.388 13C283.708 13 283.136 12.881 282.671 12.643C282.207 12.405 281.861 12.0537 281.634 11.589C281.408 11.113 281.294 10.5237 281.294 9.821V5.962H279.951C279.838 5.962 279.742 5.92233 279.662 5.843C279.583 5.76367 279.543 5.66733 279.543 5.554V4.568C279.543 4.45467 279.583 4.35833 279.662 4.279C279.742 4.19967 279.838 4.16 279.951 4.16H281.294V1.338C281.294 1.22467 281.328 1.12833 281.396 1.049C281.476 0.969666 281.578 0.929999 281.702 0.929999H283.079C283.193 0.929999 283.289 0.969666 283.368 1.049C283.448 1.12833 283.487 1.22467 283.487 1.338V4.16H285.612C285.726 4.16 285.822 4.19967 285.901 4.279C285.981 4.35833 286.02 4.45467 286.02 4.568V5.554C286.02 5.66733 285.981 5.76367 285.901 5.843C285.822 5.92233 285.726 5.962 285.612 5.962H283.487V9.651C283.487 10.1157 283.567 10.4783 283.725 10.739C283.895 10.9997 284.184 11.13 284.592 11.13H285.765C285.879 11.13 285.975 11.1697 286.054 11.249C286.134 11.3283 286.173 11.4247 286.173 11.538V12.592C286.173 12.7053 286.134 12.8017 286.054 12.881C285.975 12.9603 285.879 13 285.765 13H284.388ZM288.141 9.702C288.027 9.702 287.931 9.668 287.852 9.6C287.772 9.52067 287.733 9.41867 287.733 9.294V1.508C287.733 1.39467 287.772 1.29833 287.852 1.219C287.931 1.13967 288.027 1.1 288.141 1.1H289.518C289.642 1.1 289.739 1.13967 289.807 1.219C289.886 1.29833 289.926 1.39467 289.926 1.508V9.294C289.926 9.41867 289.886 9.52067 289.807 9.6C289.739 9.668 289.642 9.702 289.518 9.702H288.141ZM288.039 13C287.914 13 287.812 12.9603 287.733 12.881C287.665 12.8017 287.631 12.7053 287.631 12.592V11.011C287.631 10.8863 287.665 10.7843 287.733 10.705C287.812 10.6257 287.914 10.586 288.039 10.586H289.62C289.744 10.586 289.846 10.6257 289.926 10.705C290.005 10.7843 290.045 10.8863 290.045 11.011V12.592C290.045 12.7053 290.005 12.8017 289.926 12.881C289.846 12.9603 289.744 13 289.62 13H288.039Z" fill="#555555"/>
</svg>
